<svg xmlns="http://www.w3.org/2000/svg" width="70.432" height="88.44" viewBox="0 0 70.432 88.44"><defs><style>.a{fill:currentColor;}</style></defs><g transform="translate(-52.128 0)"><g transform="translate(52.128 0)"><g transform="translate(0)"><path class="a" d="M105.458,30.366c0-.051,0-.1-.007-.153,0-.036-.009-.071-.013-.107l0-.021q-.018-.147-.046-.292l0-.015q-.03-.149-.07-.295l0-.009q-.041-.148-.094-.292l0-.008q-.052-.143-.115-.282l-.006-.014q-.062-.134-.134-.264l-.012-.022q-.071-.126-.151-.247l-.017-.027c-.059-.088-.121-.175-.188-.259l-.006-.008c-.072-.09-.15-.177-.23-.261-.014-.015-.026-.031-.04-.045a4.038,4.038,0,0,0-.3-.279L91.651,17.1a4.056,4.056,0,0,0-5.708.5L67.279,39.884a4.026,4.026,0,0,0-.93,2.958q.018.2.055.4a4.021,4.021,0,0,0,1.379,2.35l1.117.936H53.856a1.728,1.728,0,1,0,0,3.455h1.906L60.1,97.168a5.083,5.083,0,0,0,5.085,4.64H87.473a5.083,5.083,0,0,0,5.086-4.64l4.334-47.185H98.8a1.728,1.728,0,0,0,0-3.455H93.33l11.191-13.357a4.054,4.054,0,0,0,.249-.33h0q.094-.139.175-.283c.044-.077.082-.156.121-.236.009-.019.019-.037.028-.055.041-.088.076-.177.11-.267l.013-.032c.034-.091.063-.184.09-.277l.009-.029c.026-.092.047-.184.066-.278,0-.012.006-.025.008-.037.017-.09.031-.18.042-.271,0-.017,0-.034.006-.051q.014-.13.02-.26c0-.023,0-.045,0-.068q0-.125,0-.25C105.461,30.418,105.459,30.392,105.458,30.366ZM91.724,21.672l7.781,6.519-9.541,3.485Zm-3.2-1.771L86.043,34.026h0l-.053.3A3.5,3.5,0,0,1,83.75,37l-.042.015-13.716,5.01ZM81.835,41.379l-.906,5.149H74.28l-1.986-1.664Zm11.587,8.6L89.659,90.968H88.38a1.728,1.728,0,0,0,0,3.455h.961l-.223,2.43a1.644,1.644,0,0,1-1.645,1.5H65.181a1.644,1.644,0,0,1-1.645-1.5l-.223-2.43H74.56a1.728,1.728,0,0,0,0-3.455H63L59.231,49.983H93.423Zm-4.6-3.455H84.438l1.154-6.561c.037-.018.074-.039.111-.058l.132-.069c.087-.047.173-.1.257-.146.036-.021.072-.042.107-.064.118-.073.233-.148.346-.228l.043-.032q.147-.105.288-.218c.036-.029.071-.059.106-.088q.108-.09.212-.183l.11-.1c.069-.065.136-.131.2-.2.031-.032.063-.063.094-.1.092-.1.181-.2.267-.3l.014-.017c.085-.1.167-.207.246-.314.027-.036.052-.073.079-.11.054-.076.108-.153.159-.232.028-.042.055-.085.081-.127.049-.078.1-.158.142-.238.023-.041.047-.081.069-.123q.085-.156.161-.316l.027-.053c.058-.124.112-.251.163-.379.016-.04.03-.08.045-.12.034-.091.067-.183.1-.276.016-.048.03-.1.045-.143s.026-.078.037-.118l12.576-4.594Z" transform="translate(-52.128 -13.368)"/><path class="a" d="M335.916,2.943C327.556-.84,321.49-.291,317.874.837a14.186,14.186,0,0,0-6.183,3.65,1.73,1.73,0,0,0,1.3,2.872,1.713,1.713,0,0,0,1.294-.588,11.156,11.156,0,0,1,4.83-2.7c4.325-1.274,9.642-.576,15.378,2.019a1.728,1.728,0,1,0,1.424-3.148Z" transform="translate(-266.5 0)"/><path class="a" d="M355.993,42.8c-4.849-2.113-9.84.68-10.05.8a1.728,1.728,0,0,0,1.708,3c.037-.021,3.72-2.049,6.962-.636a1.728,1.728,0,1,0,1.38-3.168Z" transform="translate(-294.472 -34.758)"/><path class="a" d="M183.948,244.109a1.727,1.727,0,0,0-1.728,1.728v27.918a1.728,1.728,0,1,0,3.455,0V245.837A1.728,1.728,0,0,0,183.948,244.109Z" transform="translate(-159.749 -201.943)"/><path class="a" d="M120.58,240.174a1.727,1.727,0,1,0-3.443.286l2.448,29.506a1.728,1.728,0,0,0,1.72,1.585c.048,0,.1,0,.145-.006a1.728,1.728,0,0,0,1.579-1.864Z" transform="translate(-105.903 -197.376)"/><path class="a" d="M237.454,238.595a1.729,1.729,0,0,0-1.864,1.579l-2.448,29.506a1.727,1.727,0,0,0,1.579,1.864q.073.006.145.006a1.728,1.728,0,0,0,1.72-1.585l2.448-29.506A1.727,1.727,0,0,0,237.454,238.595Z" transform="translate(-201.869 -197.376)"/><path class="a" d="M215.317,450.316a1.706,1.706,0,0,0-.159-.3,1.679,1.679,0,0,0-.477-.477,1.754,1.754,0,0,0-.3-.159,1.8,1.8,0,0,0-.325-.1,1.7,1.7,0,0,0-.674,0,1.743,1.743,0,0,0-.323.1,1.706,1.706,0,0,0-.3.159,1.679,1.679,0,0,0-.477.477,1.706,1.706,0,0,0-.159.3,1.623,1.623,0,0,0-.1.323,1.7,1.7,0,0,0-.035.337,1.731,1.731,0,0,0,.035.339,1.7,1.7,0,0,0,.1.323,1.751,1.751,0,0,0,.159.3,1.678,1.678,0,0,0,.477.477,1.6,1.6,0,0,0,.3.159,1.622,1.622,0,0,0,.323.1,1.662,1.662,0,0,0,.674,0,1.673,1.673,0,0,0,.325-.1,1.632,1.632,0,0,0,.3-.159,1.678,1.678,0,0,0,.477-.477,1.751,1.751,0,0,0,.159-.3,1.7,1.7,0,0,0,.1-.323,1.732,1.732,0,0,0,.035-.339,1.7,1.7,0,0,0-.035-.337A1.625,1.625,0,0,0,215.317,450.316Z" transform="translate(-184.38 -371.648)"/></g></g></g></svg>